<?xml version="1.0" standalone="no"?>
<!DOCTYPE svg PUBLIC "-//W3C//DTD SVG 20010904//EN"
 "http://www.w3.org/TR/2001/REC-SVG-20010904/DTD/svg10.dtd">
<svg version="1.0" xmlns="http://www.w3.org/2000/svg"
 width="260.000000pt" height="260.000000pt" viewBox="0 0 260.000000 260.000000"
 preserveAspectRatio="xMidYMid meet">
<metadata>
Created by potrace 1.14, written by Peter Selinger 2001-2017
</metadata>
<g transform="translate(0.000000,260.000000) scale(0.100000,-0.100000)"
fill="#000000" stroke="none">
<path d="M0 1300 l0 -1300 1300 0 1300 0 0 1300 0 1300 -1300 0 -1300 0 0
-1300z m1126 408 l94 -11 0 -45 c0 -43 -1 -44 -27 -38 -16 3 -91 8 -168 12
-124 5 -144 3 -174 -13 -71 -38 -100 -124 -64 -193 24 -46 59 -64 192 -99 139
-37 194 -63 229 -109 25 -33 27 -42 27 -136 0 -116 -18 -165 -79 -211 -72 -54
-197 -68 -386 -42 l-85 12 1 38 c1 21 3 39 5 42 3 2 36 0 74 -5 121 -16 255
-12 294 8 55 27 75 63 79 140 4 62 2 71 -23 100 -27 32 -58 44 -225 86 -85 22
-159 63 -187 104 -48 73 -39 222 19 288 70 79 183 100 404 72z m711 1 c115
-15 115 -15 111 -57 l-3 -37 -65 5 c-36 3 -108 5 -160 5 -78 0 -101 -4 -130
-21 -73 -42 -97 -111 -107 -299 -6 -132 9 -253 40 -315 35 -70 84 -90 217 -90
58 1 125 5 150 10 51 9 60 3 60 -46 l0 -32 -75 -11 c-109 -16 -242 -14 -306 5
-78 23 -131 81 -161 176 -21 65 -23 93 -23 263 0 206 9 253 60 341 57 97 187
131 392 103z"/>
</g>
</svg>
