<svg width="40" height="40" viewBox="0 0 40 40" fill="none" xmlns="http://www.w3.org/2000/svg">
<path d="M40 0H0V40H40V0Z" fill="#00875F"/>
<path d="M15.7285 15.84C14.1285 15.84 13.3285 16.4427 13.3285 17.648C13.3285 18.32 13.5098 18.784 13.8725 19.04C14.2458 19.2853 14.9925 19.536 16.1125 19.792C17.2432 20.0373 18.0432 20.3627 18.5125 20.768C18.9818 21.1627 19.2165 21.8187 19.2165 22.736C19.2165 25.008 18.0378 26.144 15.6805 26.144C14.9018 26.144 13.9258 26.0533 12.7525 25.872L12.1765 25.792L12.3045 24.768C13.7552 24.96 14.8592 25.056 15.6165 25.056C17.1952 25.056 17.9845 24.3147 17.9845 22.832C17.9845 22.2347 17.8085 21.808 17.4565 21.552C17.1152 21.2853 16.4698 21.0613 15.5205 20.88C14.2725 20.6133 13.3872 20.272 12.8645 19.856C12.3418 19.4293 12.0805 18.72 12.0805 17.728C12.0805 15.744 13.2698 14.752 15.6485 14.752C16.4272 14.752 17.3605 14.832 18.4485 14.992L18.9925 15.072L18.8805 16.112C17.3978 15.9307 16.3472 15.84 15.7285 15.84ZM28.0324 25.824C26.9337 26.048 25.947 26.16 25.0724 26.16C24.1977 26.16 23.4884 26.0427 22.9444 25.808C22.411 25.5627 21.995 25.1893 21.6964 24.688C21.4084 24.176 21.2057 23.5947 21.0884 22.944C20.9817 22.2827 20.9284 21.4613 20.9284 20.48C20.9284 19.4987 20.9817 18.6773 21.0884 18.016C21.2057 17.344 21.4084 16.752 21.6964 16.24C21.995 15.728 22.411 15.3547 22.9444 15.12C23.4777 14.8853 24.171 14.768 25.0244 14.768C25.8777 14.768 26.8804 14.8853 28.0324 15.12L27.9844 16.16C26.907 15.968 25.947 15.872 25.1044 15.872C23.931 15.872 23.1524 16.224 22.7684 16.928C22.395 17.6213 22.2084 18.8107 22.2084 20.496C22.2084 21.3387 22.2404 22.016 22.3044 22.528C22.379 23.04 22.5177 23.504 22.7204 23.92C22.923 24.3253 23.2164 24.6187 23.6004 24.8C23.995 24.9707 24.5657 25.056 25.3124 25.056C26.0697 25.056 26.9604 24.96 27.9844 24.768L28.0324 25.824Z" fill="white"/>
</svg>
