<svg width="230" height="40" viewBox="0 0 230 40" fill="none" xmlns="http://www.w3.org/2000/svg">
<path d="M57.624 13.76C55.224 13.76 54.024 14.664 54.024 16.472C54.024 17.48 54.296 18.176 54.84 18.56C55.4 18.928 56.52 19.304 58.2 19.688C59.896 20.056 61.096 20.544 61.8 21.152C62.504 21.744 62.856 22.728 62.856 24.104C62.856 27.512 61.088 29.216 57.552 29.216C56.384 29.216 54.92 29.08 53.16 28.808L52.296 28.688L52.488 27.152C54.664 27.44 56.32 27.584 57.456 27.584C59.824 27.584 61.008 26.472 61.008 24.248C61.008 23.352 60.744 22.712 60.216 22.328C59.704 21.928 58.736 21.592 57.312 21.32C55.44 20.92 54.112 20.408 53.328 19.784C52.544 19.144 52.152 18.08 52.152 16.592C52.152 13.616 53.936 12.128 57.504 12.128C58.672 12.128 60.072 12.248 61.704 12.488L62.52 12.608L62.352 14.168C60.128 13.896 58.552 13.76 57.624 13.76ZM72.1198 23.408H67.8958V29H66.0478V12.392H72.1198C73.9278 12.392 75.2638 12.832 76.1278 13.712C76.9918 14.592 77.4238 15.936 77.4238 17.744C77.4238 21.52 75.6558 23.408 72.1198 23.408ZM67.8958 21.776H72.0958C74.3838 21.776 75.5278 20.432 75.5278 17.744C75.5278 16.464 75.2558 15.528 74.7118 14.936C74.1678 14.328 73.2958 14.024 72.0958 14.024H67.8958V21.776ZM81.4984 20.768C81.4984 23.2 81.8184 24.952 82.4584 26.024C83.0984 27.08 84.3304 27.608 86.1544 27.608C87.9944 27.608 89.2264 27.088 89.8504 26.048C90.4904 25.008 90.8104 23.264 90.8104 20.816C90.8104 18.368 90.4824 16.584 89.8264 15.464C89.1704 14.344 87.9384 13.784 86.1304 13.784C84.3384 13.784 83.1144 14.344 82.4584 15.464C81.8184 16.568 81.4984 18.336 81.4984 20.768ZM92.7304 20.816C92.7304 23.776 92.2584 25.92 91.3144 27.248C90.3704 28.576 88.6504 29.24 86.1544 29.24C83.6744 29.24 81.9624 28.56 81.0184 27.2C80.0744 25.84 79.6024 23.704 79.6024 20.792C79.6024 17.864 80.0824 15.696 81.0424 14.288C82.0024 12.864 83.7064 12.152 86.1544 12.152C88.6024 12.152 90.3064 12.856 91.2664 14.264C92.2424 15.672 92.7304 17.856 92.7304 20.816ZM97.9661 22.64V29H96.1181V12.392H102.262C104.022 12.392 105.342 12.8 106.222 13.616C107.118 14.432 107.566 15.704 107.566 17.432C107.566 19.992 106.55 21.6 104.518 22.256L107.71 29H105.67L102.67 22.64H97.9661ZM102.286 21.008C104.542 21.008 105.67 19.848 105.67 17.528C105.67 15.192 104.534 14.024 102.262 14.024H97.9661V21.008H102.286ZM108.945 14.048V12.392H120.945V14.048H115.881V29H114.057V14.048H108.945ZM127.89 13.76C125.49 13.76 124.29 14.664 124.29 16.472C124.29 17.48 124.562 18.176 125.106 18.56C125.666 18.928 126.786 19.304 128.466 19.688C130.162 20.056 131.362 20.544 132.066 21.152C132.77 21.744 133.122 22.728 133.122 24.104C133.122 27.512 131.354 29.216 127.818 29.216C126.65 29.216 125.186 29.08 123.426 28.808L122.562 28.688L122.754 27.152C124.93 27.44 126.586 27.584 127.722 27.584C130.09 27.584 131.274 26.472 131.274 24.248C131.274 23.352 131.01 22.712 130.482 22.328C129.97 21.928 129.002 21.592 127.578 21.32C125.706 20.92 124.378 20.408 123.594 19.784C122.81 19.144 122.418 18.08 122.418 16.592C122.418 13.616 124.202 12.128 127.77 12.128C128.938 12.128 130.338 12.248 131.97 12.488L132.786 12.608L132.618 14.168C130.394 13.896 128.818 13.76 127.89 13.76ZM146.345 28.736C144.697 29.072 143.217 29.24 141.905 29.24C140.593 29.24 139.529 29.064 138.713 28.712C137.913 28.344 137.289 27.784 136.841 27.032C136.409 26.264 136.105 25.392 135.929 24.416C135.769 23.424 135.689 22.192 135.689 20.72C135.689 19.248 135.769 18.016 135.929 17.024C136.105 16.016 136.409 15.128 136.841 14.36C137.289 13.592 137.913 13.032 138.713 12.68C139.513 12.328 140.553 12.152 141.833 12.152C143.113 12.152 144.617 12.328 146.345 12.68L146.273 14.24C144.657 13.952 143.217 13.808 141.953 13.808C140.193 13.808 139.025 14.336 138.449 15.392C137.889 16.432 137.609 18.216 137.609 20.744C137.609 22.008 137.657 23.024 137.753 23.792C137.865 24.56 138.073 25.256 138.377 25.88C138.681 26.488 139.121 26.928 139.697 27.2C140.289 27.456 141.145 27.584 142.265 27.584C143.401 27.584 144.737 27.44 146.273 27.152L146.345 28.736ZM149.368 29V12.392H159.472V14.024H151.216V19.76H158.032V21.368H151.216V27.368H159.472V29H149.368ZM162.634 29V12.392H166.09L172.45 27.368H172.954V12.392H174.778V29H171.394L164.938 14.024H164.482V29H162.634ZM177.125 14.048V12.392H189.125V14.048H184.061V29H182.237V14.048H177.125ZM193.333 22.64V29H191.485V12.392H197.629C199.389 12.392 200.709 12.8 201.589 13.616C202.485 14.432 202.933 15.704 202.933 17.432C202.933 19.992 201.917 21.6 199.885 22.256L203.077 29H201.037L198.037 22.64H193.333ZM197.653 21.008C199.909 21.008 201.037 19.848 201.037 17.528C201.037 15.192 199.901 14.024 197.629 14.024H193.333V21.008H197.653ZM204.646 29L209.206 12.392H213.238L217.798 29H215.974L214.774 24.728H207.67L206.47 29H204.646ZM210.598 13.976L208.078 23.072H214.366L211.846 13.976H210.598ZM229.551 29H220.407V12.392H222.255V27.344H229.551V29Z" fill="white"/>
<mask id="mask0_4_294" style="mask-type:luminance" maskUnits="userSpaceOnUse" x="0" y="0" width="40" height="40">
<path d="M40 0H0V40H40V0Z" fill="white"/>
</mask>
<g mask="url(#mask0_4_294)">
<path d="M40 0H0V40H40V0Z" fill="#00875F"/>
<path d="M15.7285 15.84C14.1285 15.84 13.3285 16.4427 13.3285 17.648C13.3285 18.32 13.5098 18.784 13.8725 19.04C14.2458 19.2853 14.9925 19.536 16.1125 19.792C17.2432 20.0373 18.0432 20.3627 18.5125 20.768C18.9818 21.1627 19.2165 21.8187 19.2165 22.736C19.2165 25.008 18.0378 26.144 15.6805 26.144C14.9018 26.144 13.9258 26.0533 12.7525 25.872L12.1765 25.792L12.3045 24.768C13.7552 24.96 14.8592 25.056 15.6165 25.056C17.1952 25.056 17.9845 24.3147 17.9845 22.832C17.9845 22.2347 17.8085 21.808 17.4565 21.552C17.1152 21.2853 16.4698 21.0613 15.5205 20.88C14.2725 20.6133 13.3872 20.272 12.8645 19.856C12.3418 19.4293 12.0805 18.72 12.0805 17.728C12.0805 15.744 13.2698 14.752 15.6485 14.752C16.4272 14.752 17.3605 14.832 18.4485 14.992L18.9925 15.072L18.8805 16.112C17.3978 15.9307 16.3472 15.84 15.7285 15.84ZM28.0324 25.824C26.9337 26.048 25.947 26.16 25.0724 26.16C24.1977 26.16 23.4884 26.0427 22.9444 25.808C22.411 25.5627 21.995 25.1893 21.6964 24.688C21.4084 24.176 21.2057 23.5947 21.0884 22.944C20.9817 22.2827 20.9284 21.4613 20.9284 20.48C20.9284 19.4987 20.9817 18.6773 21.0884 18.016C21.2057 17.344 21.4084 16.752 21.6964 16.24C21.995 15.728 22.411 15.3547 22.9444 15.12C23.4777 14.8853 24.171 14.768 25.0244 14.768C25.8777 14.768 26.8804 14.8853 28.0324 15.12L27.9844 16.16C26.907 15.968 25.947 15.872 25.1044 15.872C23.931 15.872 23.1524 16.224 22.7684 16.928C22.395 17.6213 22.2084 18.8107 22.2084 20.496C22.2084 21.3387 22.2404 22.016 22.3044 22.528C22.379 23.04 22.5177 23.504 22.7204 23.92C22.923 24.3253 23.2164 24.6187 23.6004 24.8C23.995 24.9707 24.5657 25.056 25.3124 25.056C26.0697 25.056 26.9604 24.96 27.9844 24.768L28.0324 25.824Z" fill="white"/>
</g>
</svg>
